<?xml version="1.0" encoding="UTF-8"?>
<svg xmlns="http://www.w3.org/2000/svg" version="1.1" baseProfile="tiny" viewBox="0 0 100 100">

  <path d="m 50,0 0,50 50,0 L 50,0 Z M 0,50 0,100 50,100 0,50 Z" fill="#808080" opacity="0.04"/>
  <path d="M 50,0 100,50 100,0 50,0 Z M 0,50 50,100 50,50 0,50 Z" fill="#808080" opacity="0.04"/>
  <path d="M 50,0 50,50 0,50 50,0 Z m 50,50 0,50 -50,0 50,-50 z" fill="#808080" opacity="0.06"/>
  <path d="M 50,0 0,50 0,0 50,0 Z m 50,50 -50,50 0,-50 50,0 z" fill="#808080" opacity="0.02"/>

</svg>
